<?xml version="1.0" encoding="utf-8"?>
<!-- Generator: Adobe Illustrator 18.0.0, SVG Export Plug-In . SVG Version: 6.00 Build 0)  -->
<!DOCTYPE svg PUBLIC "-//W3C//DTD SVG 1.1//EN" "http://www.w3.org/Graphics/SVG/1.1/DTD/svg11.dtd">
<svg version="1.1" id="Layer_1" xmlns="http://www.w3.org/2000/svg" xmlns:xlink="http://www.w3.org/1999/xlink" x="0px" y="0px"
	 viewBox="0 0 1024 768" enable-background="new 0 0 1024 768" xml:space="preserve">
<g>
	<rect x="282.5" y="169" width="463.4" height="465.6"/>
	<rect x="631.2" y="169" fill="#566422" width="115.9" height="465.6"/>
	<rect x="511.3" y="169" fill="#D5A00F" width="122.7" height="465.6"/>
	<rect x="394.4" y="169" fill="#FFFFFF" width="115.9" height="465.6"/>
	<rect x="277" y="169" fill="#006993" width="121.3" height="465.6"/>
	<path d="M534.6,475.2c7.4,28.3,14.5,55.6,21.5,83.2c1.6-0.3,3.5-0.3,5.1-0.6c-10-41.1-19.9-82.2-29.9-122.7"/>
	<g>
		<path d="M537.4,433.7c24.4-11.2,28.3-27.9,24.7-46.9c6.1-1.3,11.6-2.2,17.3-3.5c7.4,14.5,5.5,25.4-12.5,32.1
			c-2.9,21.2,7.1,38.5,22.2,54.9v-51.7c7.7,22.8,10.3,27,20.9,34.4c3.2-27.3-5.1-55.6,11.6-84.5c2.9,15.1,2.9,15.1-7.1,29.2
			c1,14.1,5.1,27.3,17.7,42.4c0.6-27.3-8.7-51.7,4.2-78.4c2.6,6.4,3.9,10.3,5.1,13.2c-11.9,18.3-10.6,29.6,4.5,44.3
			c0.6-7.4,1.3-14.8,1.9-23.4c4.5,4.8,7.7,7.7,13.5,13.5v-27c3.9,6.1,6.1,10.3,9,14.8c7.7-8,14.1-14.8,19-19.9
			c3.5-12.8,6.1-23.4,9.3-35c-2.6-4.8-6.1-10.6-9.3-16.4c-1,4.2-1.6,8.4-2.2,12.2c-0.6,0-1.3,0-2.2,0c-1-4.8-1.6-9.3-2.6-14.1
			c-1,0-1.9,0-2.6,0c-0.6,6.1-1.6,12.2-2.2,18.3c-1.3,0-2.6,0-3.9,0c-1.3-7.7-2.9-15.7-4.2-23.4c-1,0-1.9,0-3.2,0
			c-0.6,9-1.6,17.7-2.2,26.7c-1.3,0-2.9,0-4.2,0c-1.3-8-2.6-16.4-3.9-24.4c-1.6,0-3.2,0-4.8,0.3v30.2c-10.9-9-2.2-20.9-14.5-29.6
			v37.9c-18.6-11.6-5.1-27.3-18-37.3v37.9l-5.5,0.3c-11.6-12.5,0-29.2-11.6-42.4v50.1c-7.1-1.6-10.9-2.6-15.1-3.5
			c-4.2-17,0.3-34.4-10.3-50.1c1.3,19,2.2,38.2,3.5,58.1c-6.1,1.3-11.2,2.6-18.6,4.2c-3.5-21.8-7.1-41.8-10.6-62c-0.6,0-1.6,0-2.2,0
			c1.9,21.8,3.9,43.4,5.8,66.5c-12.2,3.2-22.2,5.8-34.7,9v-50.4c11.2-4.5,20.9-9.6,13.8-20.6c-8.4,8.7-15.7,16.4-22.2,23.1v49.5
			c-13.8-3.9-26-7.4-37.3-10.6v-66.5c-0.3,0-1,0-1.3,0c-2.6,20.9-4.8,41.4-7.4,63c-8.4-2.6-14.5-4.2-19.3-5.8v-58.5
			c-1.3,0-2.2,0-3.5-0.3c-1.6,17-3.2,34.4-5.1,52.4c-4.5,0.3-8.7,0.6-14.5,1c-1-17-1.9-33.1-3.2-51.4c-9.6,16.1,4.2,32.8-13.8,46.6
			c-14.1-15.7,3.5-33.1-10.3-51.4c-1.6,17-2.6,30.2-3.9,43.4c-2.2,0-4.8,0-7.1,0c-5.5-11.9,4.5-25.4-2.6-39.5
			c-9.6,11.9-1,25.7-13.8,37.3c-1.3-11.9-2.6-21.2-3.5-30.5c-1,0-1.6,0-2.6-0.3c-1.3,8-2.9,16.1-4.5,25.1
			c-7.4-2.6-12.8-4.2-18.3-6.1c-0.6-7.1-1.3-12.8-1.9-19c-0.6,0-1.6,0-2.2,0c-0.6,5.1-1.6,10.3-2.2,15.4c-0.6,0-1.3,0-1.9,0
			c-0.6-3.9-1.3-7.4-1.9-12.2c-8.4,7.7-7.7,15.7-6.4,24.1c1.3,7.7,2.6,15.4,3.9,23.1c0,0.6,1,1.3,1.3,1.9c3.2-3.5,6.1-7.1,11.2-12.8
			c0.6,9,1,14.8,1.3,21.8c2.9-3.2,4.2-4.8,7.4-8c0.6,7.7,1.3,13.2,1.6,18.6c1,0,2.2,0.3,3.2,0.3c2.6-6.7,5.1-13.5,9.3-24.1
			c-1,14.8-1.6,25.7-2.2,36.6c1,0,2.2,0.3,3.2,0.3c3.5-5.1,7.1-10,10.6-15.1c1.3,0.3,2.6,0.3,3.9,0.6v24.7c1.9,0,3.9,0.3,5.8,0.3
			c2.9-10.6,5.8-21.2,8.4-30.2c-11.9-12.8-11.9-12.8-4.8-23.4c11.9,22.5,7.7,45.9,11.6,69.7c5.5-10.9,10.9-21.5,17.7-35.3
			c-1.3,20.6-2.6,37.9-3.9,55.3c1.3,0,2.6,0.3,3.9,0.3c5.8-9,11.2-18,17-26.7c1,0,1.9,0,2.9,0.3c-1.3,15.1-2.9,30.2-4.2,45
			c16.1-16.1,29.2-32.8,24.1-56.2c-3.5-1.6-9-4.5-14.1-7.1c1-10,1.6-18,2.6-27.3c9.3,2.2,15.4,3.9,21.2,5.5
			c5.5,36.3,5.5,36.3,29.2,49.5c-10,40.5-19.9,81.6-29.9,122.7c1.6,0.3,3.5,0.3,5.1,0.6c7.1-27.6,14.1-54.9,21.5-83.2
			c5.1,2.2,8,3.2,10.9,4.5c4.5,6.4,9,13.2,13.5,19.3c6.7-9,13.2-17.3,21.8-28.9 M427.3,374.6c2.2,9,4.5,17,7.4,27.9
			C414.4,392.9,412.5,385.5,427.3,374.6z M473.5,390c8.4,3.2,16.1,5.8,24.7,9.3c-0.6,9-1,17.3-1.6,26
			C475.1,420.6,469,410.9,473.5,390z M509.8,481.6c-2.6-0.6-4.8-1-7.4-1.6c-2.2-11.2-4.2-22.8-6.7-36
			C513,453.3,514,456.2,509.8,481.6z M522.7,478.1c-0.3-11.9-9.6-25.1,5.8-37.6C530.7,454.6,533.3,466.8,522.7,478.1z M537.4,426
			c-14.1-22.5-8.7-32.8,17.3-32.8C558.3,407.1,555.1,418.3,537.4,426z"/>
		<path d="M388.4,505.7"/>
		<path d="M390.6,567.7"/>
		<path d="M400.9,558.7"/>
	</g>
</g>
</svg>
